<svg width="71" height="71" viewBox="0 0 71 71" fill="none" xmlns="http://www.w3.org/2000/svg">
<rect width="71" height="71" rx="10" fill="white"/>
<path d="M55.5008 35.9992L43.4572 33.7225C42.1733 33.4798 40.9915 32.8543 40.0675 31.9303C39.1442 31.0066 38.5202 29.8262 38.2775 28.5428L36.0008 16.4992H35.9987L33.722 28.5428C33.4793 29.8266 32.8537 31.0064 31.9299 31.9303C31.0057 32.8545 29.8244 33.4778 28.5402 33.7204L16.4987 35.9992V36.0013L28.5423 38.278C29.8257 38.5207 31.0061 39.1447 31.9299 40.068C32.8538 40.992 33.4793 42.1738 33.722 43.4577L35.9987 55.5013V55.5055L36.0008 55.5013L38.2775 43.4577C38.5202 42.1738 39.1436 40.992 40.0675 40.068C40.9915 39.1441 42.1733 38.5207 43.4572 38.278L55.5008 36.0013L55.505 35.9992H55.5008Z" fill="black"/>
<path fill-rule="evenodd" clip-rule="evenodd" d="M55.5008 35.9992L43.4572 33.7225C42.1733 33.4798 40.9915 32.8543 40.0675 31.9303C39.1442 31.0066 38.5202 29.8262 38.2775 28.5428L36.0008 16.4992H35.9987L33.722 28.5428C33.4793 29.8266 32.8537 31.0064 31.9299 31.9303C31.0057 32.8545 29.8244 33.4778 28.5402 33.7204L16.4987 35.9992V36.0013L28.5423 38.278C29.8257 38.5207 31.0061 39.1447 31.9299 40.068C32.8538 40.992 33.4793 42.1738 33.722 43.4577L35.9987 55.5013V55.5055L36.0008 55.5013L38.2775 43.4577C38.5202 42.1738 39.1436 40.992 40.0675 40.068C40.9915 39.1441 42.1733 38.5207 43.4572 38.278L55.5008 36.0013L55.505 35.9992H55.5008ZM59.8384 35.9992C59.8384 37.0104 59.4837 37.9909 58.8376 38.7689C58.1915 39.5465 57.2945 40.0749 56.3006 40.2606L56.2985 40.2585L44.2633 42.5352C43.8353 42.616 43.4415 42.8259 43.1335 43.134C42.8254 43.442 42.6155 43.8358 42.5347 44.2638L40.258 56.299C40.0723 57.2928 39.546 58.192 38.7684 58.8381C37.9905 59.4841 37.0099 59.8389 35.9987 59.8389C34.9878 59.8386 34.0088 59.4839 33.2311 58.8381C32.4534 58.192 31.9251 57.295 31.7394 56.3011V56.299L29.4627 44.2638C29.3819 43.8358 29.174 43.442 28.866 43.134C28.558 42.8259 28.1642 42.616 27.7362 42.5352L15.6989 40.2585V40.2606C14.7048 40.0749 13.8059 39.5468 13.1598 38.7689C12.514 37.991 12.1611 37.0102 12.1611 35.9992C12.1614 34.9885 12.5142 34.0092 13.1598 33.2316C13.7251 32.551 14.4842 32.0627 15.3307 31.8267L15.6989 31.7399L27.7362 29.4632C28.1642 29.3824 28.558 29.1746 28.866 28.8665C29.1741 28.5585 29.3819 28.1647 29.4627 27.7367L31.7394 15.6994L31.8262 15.3312C32.0622 14.4847 32.5505 13.7256 33.2311 13.1603C34.0087 12.5147 34.988 12.1618 35.9987 12.1616C37.0098 12.1616 37.9905 12.5145 38.7684 13.1603C39.5463 13.8064 40.0744 14.7053 40.2601 15.6994H40.258L42.5347 27.7367C42.6155 28.1647 42.8254 28.5585 43.1335 28.8665C43.4415 29.1745 43.8353 29.3824 44.2633 29.4632L56.2985 31.7399C57.2924 31.9256 58.1915 32.4539 58.8376 33.2316C59.4834 34.0093 59.8382 34.9883 59.8384 35.9992Z" fill="black"/>
</svg>
